<svg width="45" height="65" viewBox="0 0 45 65" fill="none" xmlns="http://www.w3.org/2000/svg">
<path d="M0 15.888C0 10.5209 0 7.83727 0.900988 5.78728C1.69352 3.98406 2.95812 2.51799 4.51356 1.59921C6.28184 0.554688 8.59666 0.554688 13.2263 0.554688H22.0763C24.0982 0.554688 25.1091 0.554688 26.0605 0.819476C26.904 1.05424 27.7103 1.44144 28.4499 1.96689C29.2842 2.55954 29.999 3.38826 31.4287 5.04572L40.2138 15.2303C41.6435 16.8878 42.3583 17.7165 42.8695 18.6836C43.3228 19.5411 43.6568 20.4759 43.8593 21.4537C44.0877 22.5566 44.0877 23.7286 44.0877 26.0726V49.1102C44.0877 54.4774 44.0877 57.161 43.1867 59.211C42.3942 61.0142 41.1296 62.4803 39.5741 63.3991C37.8058 64.4436 35.491 64.4436 30.8614 64.4436H13.2263C8.59666 64.4436 6.28184 64.4436 4.51356 63.3991C2.95812 62.4803 1.69352 61.0142 0.900988 59.211C0 57.161 0 54.4774 0 49.1102V15.888Z" fill="#FFF7ED"/>
<path d="M24.2344 51.666L33.0519 42.7215L24.2344 33.7771" fill="#FFF7ED"/>
<path d="M24.2344 51.666L33.0519 42.7215L24.2344 33.7771" stroke="black" stroke-width="5.11111" stroke-linecap="round" stroke-linejoin="round"/>
</svg>
